<svg width="20" height="23" viewBox="0 0 20 23" fill="none" xmlns="http://www.w3.org/2000/svg">
<g id="basket">
<path id="Rectangle-10" fill-rule="evenodd" clip-rule="evenodd" d="M19.2064 6.85876H0.309631V18.6482C0.309631 20.8574 2.09571 22.6482 4.29896 22.6482H15.2171C17.4203 22.6482 19.2064 20.8574 19.2064 18.6482V6.85876ZM4.29893 21.1482C2.9219 21.1482 1.8056 20.0289 1.8056 18.6482V8.35876H17.7104V18.6482C17.7104 20.0289 16.5941 21.1482 15.2171 21.1482H4.29893Z" fill="#262626"/>
<path id="Rectangle-3" d="M6.3067 12.06V5.86806C6.3067 3.95686 7.85189 2.40753 9.75799 2.40753C11.6641 2.40753 13.2093 3.95686 13.2093 5.86806V12.06C13.2093 12.4742 13.5442 12.81 13.9573 12.81C14.3704 12.81 14.7053 12.4742 14.7053 12.06V5.86806C14.7053 3.12844 12.4903 0.907532 9.75799 0.907532C7.02568 0.907532 4.8107 3.12844 4.8107 5.86806V12.06C4.8107 12.4742 5.14559 12.81 5.5587 12.81C5.97181 12.81 6.3067 12.4742 6.3067 12.06Z" fill="#262626"/>
</g>
</svg>
