<svg width="120" height="14" viewBox="0 0 120 14" fill="none" xmlns="http://www.w3.org/2000/svg">
<g id="logo">
<g id="XMLID_234_">
<path id="XMLID_243_" d="M9.18182 1.52885V8.16346C9.18182 10.375 8.22285 11.2885 5.92131 11.2885C3.61978 11.2885 2.66081 10.375 2.66081 8.16346V1.24039H0.455172C0.311326 1.24039 0.16748 1.38462 0.16748 1.52885V8.25962C0.16748 11.9615 2.51696 13.2596 5.92131 13.2596C9.32566 13.2596 11.6751 11.9615 11.6751 8.25962V1.24039H9.46951C9.32566 1.24039 9.18182 1.33654 9.18182 1.52885Z" fill="black"/>
<path id="XMLID_242_" d="M41.2593 3.16346C41.4511 3.16346 41.547 3.11539 41.5949 2.97116L42.2183 1.38462C42.2662 1.28846 42.2183 1.24039 42.1224 1.24039H33.2039C32.3888 1.24039 32.0532 1.48077 32.0532 2.05769V12.3462C32.0532 12.8269 32.2929 13.0673 32.9162 13.0673H41.2113C41.4031 13.0673 41.499 13.0192 41.547 12.875L42.1703 11.2885C42.2183 11.1923 42.1703 11.1442 42.0744 11.1442H34.4985V9.02885C34.4985 8.30769 34.8821 7.97116 35.9849 7.97116H39.2934C39.4852 7.97116 39.5811 7.92308 39.629 7.77885L40.2524 6.24039C40.3003 6.14423 40.2524 6.09616 40.1565 6.09616H34.5465V3.11539H41.2593V3.16346Z" fill="black"/>
<path id="XMLID_238_" fill-rule="evenodd" clip-rule="evenodd" d="M25.5801 6.81731C26.5391 6.28846 26.9227 5.375 26.9227 4.22116C26.9227 1.625 24.8129 1.24039 22.6073 1.24039H17.5727C16.7576 1.24039 16.4219 1.48077 16.4219 2.05769V12.3462C16.4219 12.8269 16.6617 13.0673 17.285 13.0673H23.4704C25.8199 13.0673 27.4501 12.1538 27.4501 9.79808C27.4981 8.35577 26.9227 7.15385 25.5801 6.81731ZM18.9152 3.11539H22.7991C24.0937 3.11539 24.4773 3.59616 24.4773 4.60577C24.4773 5.61539 24.0937 6.09616 22.7991 6.09616H18.9152V3.11539ZM18.9152 11.1442H23.2786C24.6691 11.1442 25.0527 10.6635 25.0527 9.55768C25.0527 8.45191 24.6691 7.92307 23.2786 7.92307H20.4016C19.2988 7.92307 18.9152 8.2596 18.9152 8.98076V11.1442Z" fill="black"/>
<path id="XMLID_235_" fill-rule="evenodd" clip-rule="evenodd" d="M55.0206 8.30769L57.6578 12.875C57.7057 12.9231 57.7057 13.0673 57.6098 13.0673H55.3562C55.1644 13.0673 55.1165 13.0192 55.0206 12.875L52.6232 8.54808H50.4655C49.3627 8.54808 48.9791 8.88462 48.9791 9.60577V13.0673H46.8214C46.6775 13.0673 46.5337 12.9231 46.5337 12.7788V2.05769C46.5337 1.48077 46.8693 1.24039 47.6845 1.24039H52.7191C55.6439 1.24039 57.418 2.00962 57.418 4.89423C57.418 7.10577 56.3152 7.97116 55.0206 8.30769ZM48.9311 6.72116H53.0547C54.5891 6.72116 54.9247 6.14423 54.9247 4.89423C54.9247 3.69231 54.5891 3.11539 53.0547 3.11539H48.9311V6.72116Z" fill="black"/>
</g>
<g id="XMLID_224_">
<path id="XMLID_232_" d="M76.022 12.0096L75.974 13.0673H67.2474V1.24039H75.6384L75.6863 2.34616H68.4461V6.43269H74.6794V7.39423H68.4461V12.0096H76.022Z" fill="#57AD56" stroke="#57AD56" stroke-width="0.25"/>
<g id="XMLID_229_">
<path fill-rule="evenodd" clip-rule="evenodd" d="M83.2624 9.99039H90.2149L91.5575 13.0673H92.9001L87.4819 1.24039H86.0914L80.6252 13.0673H81.9198L83.2624 9.99039ZM83.6939 8.98079L86.2351 3.25963L86.7146 2.05771H86.7626L87.2421 3.25963L89.7354 8.98079H83.6939Z" fill="#57AD56"/>
<path d="M90.2149 9.99039L90.3295 9.9404L90.2968 9.86539H90.2149V9.99039ZM83.2624 9.99039V9.86539H83.1805L83.1478 9.9404L83.2624 9.99039ZM91.5575 13.0673L91.4429 13.1173L91.4757 13.1923H91.5575V13.0673ZM92.9001 13.0673V13.1923H93.0948L93.0137 13.0152L92.9001 13.0673ZM87.4819 1.24039L87.5955 1.18832L87.5621 1.11539H87.4819V1.24039ZM86.0914 1.24039V1.11539H86.0114L85.9779 1.18794L86.0914 1.24039ZM80.6252 13.0673L80.5117 13.0149L80.4297 13.1923H80.6252V13.0673ZM81.9198 13.0673V13.1923H82.0017L82.0344 13.1173L81.9198 13.0673ZM86.2351 3.25963L86.3495 3.31041L86.3513 3.30595L86.2351 3.25963ZM83.6939 8.98079L83.5796 8.93004L83.5016 9.10579H83.6939V8.98079ZM86.7146 2.05771V1.93271H86.6299L86.5985 2.01139L86.7146 2.05771ZM86.7626 2.05771L86.8787 2.01139L86.8473 1.93271H86.7626V2.05771ZM87.2421 3.25963L87.1259 3.30597L87.1275 3.30957L87.2421 3.25963ZM89.7354 8.98079V9.10579H89.9262L89.85 8.93085L89.7354 8.98079ZM90.2149 9.86539H83.2624V10.1154H90.2149V9.86539ZM91.6721 13.0173L90.3295 9.9404L90.1004 10.0404L91.4429 13.1173L91.6721 13.0173ZM92.9001 12.9423H91.5575V13.1923H92.9001V12.9423ZM87.3682 1.29245L92.7864 13.1194L93.0137 13.0152L87.5955 1.18832L87.3682 1.29245ZM86.0914 1.36539H87.4819V1.11539H86.0914V1.36539ZM80.7387 13.1198L86.2048 1.29283L85.9779 1.18794L80.5117 13.0149L80.7387 13.1198ZM81.9198 12.9423H80.6252V13.1923H81.9198V12.9423ZM83.1478 9.9404L81.8053 13.0173L82.0344 13.1173L83.377 10.0404L83.1478 9.9404ZM86.1209 3.20889L83.5796 8.93004L83.8081 9.03153L86.3494 3.31037L86.1209 3.20889ZM86.5985 2.01139L86.119 3.21331L86.3513 3.30595L86.8307 2.10403L86.5985 2.01139ZM86.7626 1.93271H86.7146V2.18271H86.7626V1.93271ZM87.3582 3.21331L86.8787 2.01139L86.6465 2.10403L87.126 3.30595L87.3582 3.21331ZM89.85 8.93085L87.3567 3.20969L87.1275 3.30957L89.6208 9.03073L89.85 8.93085ZM83.6939 9.10579H89.7354V8.85579H83.6939V9.10579Z" fill="#57AD56"/>
</g>
<path id="XMLID_227_" d="M101.531 2.34616V13.0673H100.332V2.34616H95.9207L95.9686 1.24039H105.99V2.34616H101.531Z" fill="#57AD56" stroke="#57AD56" stroke-width="0.25"/>
<path id="XMLID_225_" d="M114.525 13.3077C112.895 13.3077 111.6 12.9231 110.545 12.2981L110.737 11.2404C111.84 11.8654 113.086 12.25 114.573 12.25C116.778 12.25 117.929 11.2404 117.929 9.79808C117.929 6.67308 110.737 8.30769 110.737 4.26923C110.737 2.53846 112.031 1 115.052 1C116.443 1 117.689 1.24038 118.696 1.72115L118.505 2.73077C117.402 2.29808 116.347 2.05769 115.1 2.05769C112.751 2.05769 111.888 3.11538 111.888 4.17308C111.888 7.15385 119.08 5.47115 119.08 9.70192C119.032 11.8173 117.498 13.3077 114.525 13.3077Z" fill="#57AD56" stroke="#57AD56" stroke-width="0.25"/>
</g>
</g>
</svg>
